<?xml version="1.0" encoding="UTF-8"?>
<svg id="_图层_1" data-name="图层 1" xmlns="http://www.w3.org/2000/svg" xmlns:xlink="http://www.w3.org/1999/xlink" viewBox="0 0 1395.66 1181.53">
  <defs>
    <style>
      .cls-1 {
        fill: url(#_未命名的渐变);
      }

      .cls-2 {
        fill: #fff;
      }

      .cls-3 {
        fill: #57c2aa;
      }

      .cls-4 {
        fill: #e3da57;
      }

      .cls-5 {
        fill: #fd7069;
      }

      .cls-6 {
        fill: #333332;
      }
    </style>
    <linearGradient id="_未命名的渐变" data-name="未命名的渐变" x1="641.37" y1="1213.09" x2="580.39" y2="1166.7" gradientTransform="translate(-57986.07 197539.37) scale(153.51 -193.85)" gradientUnits="userSpaceOnUse">
      <stop offset="0" stop-color="#5b4b4b"/>
      <stop offset="1" stop-color="#515251"/>
    </linearGradient>
  </defs>
  <path class="cls-2" d="m57.62,717.4c-1.8,3.7-5.1,4.9-8.8,6-7.1.3-14.3.8-21.4,0-12.4-6.5-12-16.5,0-22.4,9.8-.1,39.5-2.5,30.2,16.4Z"/>
  <path class="cls-2" d="m89.42,689.9c-21.7.8-20.3-39.2-6-44,20.6-1.1,19.5,36.5,6,44Z"/>
  <path class="cls-2" d="m95.92,771.9c-2,2.7-3.6,4.7-6.5,6.4-20.3,2.2-21.6-35.6-6-43.7,19.2-.3,13.6,24.9,12.5,37.3Z"/>
  <path class="cls-2" d="m142.02,723.5c-10.2.2-43.1,2.4-30.1-17.7,2.3-3.6,5.5-4,9.4-4.7,7.8-.2,19.6-1.8,26.5,2.1,11.4,6.4,4.1,18.1-5.8,20.3Z"/>
  <path class="cls-2" d="m594.32,53c10.4-.2,38.1-4.7,35,13.2-.7,4.4-2.9,7-6.5,9.4-16.4,1.5-51.9-4.5-28.5-22.6Z"/>
  <path class="cls-2" d="m654.62,0c18.5-.2,18.8,37.8,7.5,45.5-21.8,2-23.7-36.8-7.5-45.5Z"/>
  <path class="cls-2" d="m691.12,53c9.7-.2,39.5-3.9,33.3,14.9-1.3,4-4.4,5.8-7.9,7.8-25.7,3.5-49.1-9.9-25.4-22.7Z"/>
  <path class="cls-2" d="m1228.72,723.5c3.4,16.8,7.1,33.6,8.8,50.6,22.7,219.6-193.2,357.2-384,394.8-231.4,45.7-618.6-27.6-672.4-301.8-6.3-32.1-4.1-54-4.9-85.8-8.1-12.9-9.1-32.6-12.2-47.3-15.9-74.4-11.2-177,7.5-248.8,6.1-23.4,15.1-45,22.9-67.8-35.4,14.4-36.4,11.2-50.6,48.4-5.9,15.5-12.1,28.8-30.7,30.8-39.9,4.3-31.7-45.7-52.4-64.2C41.22,415,2.52,415.9.12,383.4c-2.9-38.5,46-33.2,63.5-55.1,16.3-20.3,12.2-63.8,47.4-63.9,38.5-.1,30.3,47.3,51.4,66.8,14.6,13.6,35.6,14.1,51.5,30.3,22-33.6,42.4-84,72.9-108.8,1.8-41.5,9.2-143.6,63.4-153.2,30.8-5.4,90.6,36.6,115.7,53.8,43.3-29.3,127.9-49.9,179.9-53.7,2.3-15.8,21.8-16.3,23.8,0,11.6.6,23.2.1,34.8.1,65.3.2,132.5,13,193.8,34.8,12,4.2,31.9,10,40.6,18.8,24.9-19.8,83.4-52.4,115.3-49,55.6,5.9,65.7,121.1,66.6,161.8.3,15.9-1.7,31.7-.4,47.5,10.4,9.8,19.2,22.1,27.8,33.4,77.4,102.2,111,250.9,80.6,376.5Z"/>
  <path class="cls-2" d="m1394.92,321.1c-5.1,27.8-43.8,27.2-60.9,43.9-19.6,19.1-15.7,56.7-45.2,66.6-34.4,4.2-39.8-24.8-49.6-50.4-15.9-41.6-79.4-25.1-71.8-74,4.6-29.5,48.2-28.6,64.7-45.7,18.6-19.2,9.3-54.7,42.9-63.8,32.2-2.6,36.8,25.2,45.6,49.1,16.5,44.8,82.7,28.4,74.3,74.3Z"/>
  <path class="cls-6" d="m662.22,45.5c-21.9,2-23.8-36.8-7.5-45.5,18.4-.2,18.8,37.8,7.5,45.5Z"/>
  <path class="cls-6" d="m629.42,66.3c-.7,4.4-2.9,7-6.5,9.4-16.4,1.5-52-4.5-28.6-22.6,10.4-.3,38-4.8,35.1,13.2Z"/>
  <path class="cls-6" d="m724.42,67.9c-1.3,4-4.4,5.8-7.9,7.8-25.7,3.5-49-9.8-25.3-22.6,9.6-.3,39.4-4,33.2,14.8Z"/>
  <path class="cls-6" d="m666.42,126.5c-19.2,18.9-20.7-17-20.4-26.8,2.3-15.8,21.8-16.3,23.8,0-.5,7.3,2.2,21.2-3.4,26.8Z"/>
  <path class="cls-6" d="m1237.52,774.1c-1.7-17-5.5-33.8-8.8-50.6-5.5-9.6-7.4-22.7-11.1-33.2-19.6-55.4-57.1-82.8-64.8-139.2-8.9-64.7-27.8-101.8-51.5-158.5,5.4-22,12.6-59.5,19.3-79-1.3-15.9.7-31.6.4-47.5-1-40.7-11.1-155.9-66.6-161.8-31.9-3.4-90.4,29.2-115.3,49-25.7,14.4-48.6,37.6-68.5,58.9-93.4-34.4-244.4-36.9-338-2.9-22.1-18.8-43.5-38.1-66.4-56.1-25.2-17.2-85-59.2-115.7-53.8-54.2,9.6-61.6,111.7-63.4,153.2.1,34.7,1.1,68.8,9.4,102.7,3.6,14.7,10.1,28.8,13,43.5-18.7,37.2-34.4,75.1-43.3,115.9-5.1,23.8-7.1,48.3-15.1,71.3-11.1,31.8-30.3,59.5-44,90.1-18.2,40.8-20.5,65-30.6,105,.7,31.8-1.5,53.7,4.9,85.8,53.8,274.2,441,347.5,672.4,301.8,190.6-37.5,406.5-175,383.7-394.6Zm-943.1-180.6c35.8-47.2,101.7-70.1,152.7-33,34.7,25.2,65.7,53.7,113,23.5,65.4-41.8,45.7-49.7,134.5-61.6,65.1,7,73.7,9.7,120.9,49.9,85,72.2,121.1-26.2,175.8-30.3,33.1-2.5,71.5,16.8,96,37.9,62.5,53.8,58,153.2,6.4,212.7-96.1,110.9-201.9,20.3-311.3,74.1-29.9,14.8-41.8,26.8-77.7,29.3-42.9,2.6-56-12.2-90.8-29.2-100.3-49.1-190.8,20.3-286.6-50.7-68.3-50.9-84.8-154.3-32.9-222.6Zm898.6,321.1c-4.1,13.1-13,26.6-20.3,38.2-5.1,11-15.4,21.9-23.1,31.1-8.6,10.3-17.6,20.1-27.2,29.3-83,80.7-201.4,124.2-316.8,140.7q-.1,0-.2.1c-23.9,3.4-47.6,5.6-70.8,6.8-11.5.6-29,2.7-40,.4-14.9.2-31.4.2-46.1-2.5-66.3-.6-149.7-22.6-210.4-48.7-169.9-73-293.1-213.8-220.3-403.8,6.9-18.1,16.2-34.8,23.9-52.5-.4,13-.3,26.4,0,39.5,1.9,9.1,2,18.7,3.8,27.9,19.9,103.8,113.9,157.9,215.8,150.7,34.1-2.4,66.8-7.3,100.9-.1,56.7,12,79.9,49.2,146.2,45.9,31.9-1.6,56.1-18.6,83.8-31.7,58.7-27.8,95.5-14.1,156.8-12.4,102.8,3,195.7-65.3,205.1-170.6,1.5-16.4.1-32.7.5-49.1v-.2c-6.7-10.8-9.1-25.5-14-37.3-5.3-12.5-13-22.1-20.4-33.3-5.6-3.4-10.7-10.7-15.4-15.3-40.4-39.5-115.6-66.5-164.9-28.4-17.2,13.2-28.2,30.5-50.7,35.5-41.9,9.3-64.5-28-95.3-47.6-57.3-36.3-146.5-31-202.5,5.1-20.5,13.2-37.2,36.1-61.8,41.5-32.7,7.1-51.1-19-75.5-34.4-61.9-39.1-142.3-11.3-179.5,48.1,4.6-18.9,6.7-38.2,10.5-57.3,17.7-91.1,67.2-184.3,147.8-234.2,15.7-9.7,44.8-15.1,35.6-34.9-14.9-32.1-56.4-68.5-89.8-80.8-70.5-25.9-62,141.7-43.6,181.1-3.6,3.7-6.7,7.7-9.9,11.7-28-55.2-20.1-189,9.9-238.8,4.2-6.4,9.5-12.2,17.4-13.7,30.2-5.5,115.1,59,142.6,84.5,30.5,28.2,17.2,31.6,59.6,20.2,106.4-28.4,218-24.5,321.9,12,15.4-28.3,105.7-91.2,134.6-100.4,36.9-15.5,52-20.1,68.8,21.7,37.1,92.1,16.9,153.6-2.3,240.1,27.3,43,42.8,91.8,51.5,141.6,12.2,69.5,4.7,39.5,39.8,100.3,44.1,76.1,70.2,193.2,24,274ZM361.12,197.8c36.7,10.8,64.1,35.8,85.4,66.8-21.4,10.3-40,22.4-57.8,37.9-13.5,12.4-25.4,26.9-39.3,38.7-9.3-47.6-11.9-99.3,11.7-143.4Z"/>
  <path class="cls-4" d="m939.02,153.3c-25.6,14.4-48.5,37.6-68.4,58.9-93.4-34.4-244.4-36.9-338-2.9-22.1-18.8-43.5-38.1-66.4-56.1,43.3-29.3,127.9-49.9,179.9-53.7-.3,9.8,1.2,45.7,20.4,26.8,5.7-5.6,3-19.5,3.4-26.8,11.6.6,23.2.1,34.8.1,65.3.2,132.5,13,193.8,34.8,11.8,4.3,31.8,10.1,40.5,18.9Z"/>
  <path class="cls-5" d="m965.42,298.3c-5.7-3.7-14.1-5.8-18.7-10.7-5-5.5-25.2-11.9-25.3-18.9-.1-14.6,47.8-58.2,60.1-68.2,105.1-85,98,82.6,88.1,146.9-1.8,11.7-4.6,19-16,23.4,6.5,6.7,11.8,14.4,17.3,21.9.4-13.5,5.6-27.8,8.2-41.1,10.6-54.3,15.5-171.1-24.1-209.5-12.9-12.5-28.1-4.5-43.5-4.9-28.9,9.3-119.2,72.2-134.6,100.4-12.2,8.9-30.7,1.1-43.7-2-79.5-18.8-246.6-24.1-312.9,12-45.2-32.4-126.4-128.5-184.9-113-29.9,49.7-37.8,183.5-9.8,238.7,3.2-4,6.3-8,9.9-11.7-18.4-39.3-26.9-207,43.5-181.1,33.4,12.2,74.9,48.6,89.8,80.8,9.2,19.7-19.9,25.2-35.6,34.9-80.8,49.7-130.3,143-148,234.1-3.7,19.1-5.9,38.4-10.5,57.3,37.2-59.4,117.6-87.2,179.5-48.1,24.4,15.4,42.9,41.6,75.5,34.4,24.6-5.4,41.3-28.3,61.8-41.5,56.1-36.1,145.3-41.4,202.5-5.1,30.9,19.6,53.4,56.9,95.3,47.6,22.6-5,33.6-22.2,50.7-35.5,49.3-38.1,124.5-11.1,164.9,28.4,4.7,4.6,9.8,11.9,15.4,15.3,3.9-103.3-69.9-229.1-154.9-284.8Zm-432.8,232.2c-69.9,5.3-80.7-100.1-12.3-113.2,69.8.9,77.1,103,12.3,113.2Zm64.8-141.1c-33.9,4-82.1-50.1-37.3-65.1,39.3-4.1,78.5,51.5,37.3,65.1Zm231.2-65.1c44.7-10.2,32.4,52.1-15.9,65.1-48,4-30.1-59.8,15.9-65.1Zm48.3,206.2c-71.8,1.3-82.9-97.8-16.3-113.2,55.9-6.9,92.6,78.5,16.3,113.2Z"/>
  <path class="cls-1" d="m981.52,200.4c-12.3,10-60.3,53.7-60.1,68.2.1,7,20.3,13.5,25.3,18.9,45.1,14,73.2,57.1,107,83.2,11.3-4.5,14.2-11.7,16-23.4,9.8-64.3,17-231.9-88.2-146.9Zm68.2,137.1c-9.7-12.7-24.8-26.4-38.2-34.9-16.3-14.6-41.3-30.6-62-37.9,13.6-25,53.2-58.6,80.1-66.8,34.7,7.3,23.5,114,20.1,139.6Z"/>
  <path class="cls-6" d="m1320.52,246.9c-8.8-23.9-13.4-51.7-45.6-49.1-33.5,9.1-24.3,44.5-42.9,63.8-16.5,17.1-60.1,16.2-64.7,45.7-7.6,48.8,55.8,32.4,71.8,74,9.8,25.7,15.2,54.7,49.6,50.4,29.5-9.9,25.6-47.6,45.2-66.6,17.2-16.7,55.8-16.1,60.9-43.9,8.5-46-57.7-29.6-74.3-74.3Zm37.4,80.8c-15.8,7.3-36.9,14.7-46.4,30-6.1,9.8-22.4,72-39.1,48.3-29.2-64.1-9.4-50-73.6-81.1-36-17.5,29.5-34.1,41.6-42.1,22-14.5,20.6-40.6,34.5-60.2,16.1-21.1,24.4,48.1,43.8,62.1,21.4,15.4,86.3,21.2,39.2,43Z"/>
  <path class="cls-4" d="m1272.32,406c-29.2-64.1-9.4-50-73.6-81.1-36-17.5,29.5-34.1,41.6-42.1,22-14.5,20.6-40.6,34.6-60.2,7.8,25.6,16.3,60.9,41.5,73.8,6.4,3.3,30,10.3,32.9,14.5-15.2,11.7-35.6,13.9-47.9,29.8-8.3,10.8-24.6,51.5-29.1,65.3Z"/>
  <path class="cls-4" d="m309.42,398.9c-18.7,37.2-34.4,75.1-43.3,115.9-5.1,23.8-7.1,48.3-15.1,71.3-11.1,31.8-30.3,59.5-44,90.1-18.2,40.8-20.5,65-30.6,105-8.1-12.9-9.1-32.6-12.2-47.3-15.9-74.4-11.2-177,7.5-248.8,6.1-23.4,15.1-45,22.9-67.8,18.1-12,43.9-32.5,19.4-55.8,22-33.6,42.4-84,72.9-108.8.1,34.7,1.1,68.8,9.4,102.7,3.8,14.6,10.2,28.7,13.1,43.5Z"/>
  <path class="cls-6" d="m214.12,361.5c-15.9-16.2-36.9-16.7-51.5-30.3-21-19.4-12.9-66.8-51.4-66.8-35.2.1-31.1,43.5-47.4,63.9-17.5,21.9-66.4,16.7-63.5,55.1,2.4,32.5,41.1,31.6,60.6,49,20.7,18.5,12.6,68.5,52.4,64.2,18.6-2,24.8-15.3,30.7-30.8,14.1-37.2,15.1-34,50.6-48.4,18.1-12,43.9-32.6,19.5-55.9Zm-16.2,26.3c-17.2,20.7-51.3,11.9-67.3,51.6-3.2,8-13.5,50.1-27.4,30.6-21.2-42-9.7-46.9-54.3-69.1-64-31.7,2.1-28.8,30.3-57.7,15.3-15.6,18.6-59.8,35.1-55.7,21.9,16,10.2,50.8,51.4,71.3,8.4,4.3,44.7,13.9,32.2,29Z"/>
  <path class="cls-4" d="m114.32,287.6l-7.2,6.5c8,59.8,28.5,63.9,77.4,85.8-43.9,25.3-61.3,17.4-76.5,73.9-1.5,5.4-2.6,11.1-4.9,16.2-21.2-42-9.7-46.9-54.3-69.1-64-31.7,2.1-28.8,30.3-57.7,15.4-15.5,18.7-59.7,35.2-55.6Z"/>
  <path class="cls-4" d="m1228.72,723.5c-5.5-9.6-7.4-22.7-11.1-33.2-19.6-55.4-57.1-82.8-64.8-139.2-8.9-64.7-27.8-101.8-51.5-158.5,5.4-22,12.6-59.5,19.3-79,10.4,9.8,19.2,22.1,27.8,33.4,77.1,102.2,110.7,250.9,80.3,376.5Z"/>
  <path class="cls-6" d="m860.52,417.3c-66.6,15.5-55.4,114.5,16.3,113.2,76.4-34.7,39.7-120.1-16.3-113.2Zm30.8,63.3c-11.5,1.5-22-6.7-23.5-18.2-1.4-11.5,6.8-22,18.3-23.3,11.4-1.3,21.7,6.8,23.1,18.2,1.6,11.4-6.5,21.8-17.9,23.3Z"/>
  <path class="cls-6" d="m520.22,417.3c-68.4,13.2-57.6,118.6,12.3,113.2,64.9-10.2,57.6-112.3-12.3-113.2Zm31.1,64.6c-11.3,2.1-22.1-5.3-24.4-16.5-2.2-11.2,5.1-22.2,16.3-24.5,11.3-2.3,22.5,5,24.7,16.4,2.3,11.4-5.2,22.5-16.6,24.6Z"/>
  <path class="cls-6" d="m820.82,624.7c-5.3,5.1-6.2,14.8-8.7,21.5-18,49.2-97.8,25.3-104.1-30.7,18.3-12.1,47.1-29.8,51.9-53.2,5.9-29.2-52.5-34.4-73.3-31.7-88,6.7-49.6,53.6,0,85-9,51.3-72.3,80.1-100.8,38.1-7.4-10.9-7.1-30.7-18.3-32.4-18-2.7-13.6,56.3,42,71.9-.1,43.6-6.2,85.7,27.7,119.6,19.5,19.4,43.9,27.1,70.8,24.5,79-14.4,76.6-81.2,76.5-144,58.3-18.4,60.8-76.7,36.3-68.6Zm-59.3,134.7c-11.1,63-85.1,76.9-119.9,25.9-15.4-25.8-11.8-62.8-11.9-92.1,24.1-1.7,39.5-10.8,56.8-27.3-.2,11-1.8,64.4,2,71.1,4,6.9,15.5,5.4,18.3-1.8,6.2-15.9-1.6-50,1.1-69.3,17.7,15.3,31.9,24.9,55.6,27.3,0,21.6,1.8,44.9-2,66.2Z"/>
  <path class="cls-5" d="m1002.62,701.1c-68.1,19.8-141.2-88.6-24.6-113.5,33.6-4.6,84.5,14,87,53.7,2.1,33.4-31.8,58.3-62.4,59.8Z"/>
  <path class="cls-5" d="m422.42,701.1c-88,23.3-135.9-92.2-30.1-112,113.7-8,113.3,106.3,30.1,112Z"/>
  <path class="cls-6" d="m89.42,689.9c-21.7.8-20.3-39.2-6-44,20.6-1.1,19.5,36.5,6,44Z"/>
  <path class="cls-3" d="m1154.92,653.7c-.3,9.6,20.3,33.4,25,43.1,7.6,15.8,13.9,32.1,18.3,49.1,7.5,29.5,8,58.7,5.9,88.8-5.6,81.9-47.3,153.6-110.4,205-107.7,87.6-258.6,123.2-395.1,119.6-110.1-3-225.4-31.5-320-88.7-137-82.8-209.7-224.2-136.8-377.4,1.9,9.1,2,18.7,3.8,27.9,19.9,103.7,113.9,157.9,215.8,150.7,34.1-2.4,66.9-7.3,100.9-.1,56.7,12,79.9,49.2,146.2,45.9,31.9-1.6,56.1-18.6,83.8-31.7,58.7-27.8,95.5-14.1,156.9-12.4,102.8,3,195.7-65.3,205.1-170.6,1.5-16.4.1-32.7.6-49.2Z"/>
  <path class="cls-5" d="m686.52,665.9c-.2,11-1.8,64.4,2.1,71.1,4,6.9,15.5,5.4,18.3-1.8,6.2-15.9-1.6-50,1.1-69.3,17.7,15.3,31.9,24.9,55.6,27.3,0,21.6,1.8,44.9-2,66.2-11.2,62.9-85.2,76.9-120,25.8-15.4-25.8-11.8-62.8-11.9-92.1,24.1-1.6,39.5-10.8,56.8-27.2Z"/>
  <path class="cls-6" d="m57.62,717.4c-1.8,3.7-5.1,4.9-8.8,6-7.1.3-14.3.8-21.4,0-12.4-6.5-12-16.5,0-22.4,9.8-.1,39.5-2.5,30.2,16.4Z"/>
  <path class="cls-6" d="m142.02,723.5c-10.2.2-43.1,2.4-30.1-17.7,2.3-3.6,5.5-4,9.4-4.7,7.8-.2,19.6-1.8,26.5,2.1,11.4,6.4,4.1,18.1-5.8,20.3Z"/>
  <path class="cls-6" d="m95.92,771.9c-2,2.7-3.6,4.7-6.5,6.4-20.3,2.2-21.6-35.6-6-43.7,19.2-.3,13.6,24.9,12.5,37.3Z"/>
</svg>