<?xml version="1.0" standalone="no"?><!DOCTYPE svg PUBLIC "-//W3C//DTD SVG 1.1//EN" "http://www.w3.org/Graphics/SVG/1.1/DTD/svg11.dtd"><svg height="1500" node-id="1" sillyvg="true" template-height="1500" template-width="1500" version="1.1" viewBox="0 0 1500 1500" width="1500" xmlns="http://www.w3.org/2000/svg" xmlns:xlink="http://www.w3.org/1999/xlink"><defs node-id="43"><linearGradient gradientUnits="objectBoundingBox" id="SVGID_1_" node-id="21" spreadMethod="pad" x1="986.6691" x2="925.6891" y1="763.3312" y2="809.7225"><stop offset="0" stop-color="#5b4b4b"></stop><stop offset="1" stop-color="#515251"></stop></linearGradient></defs><path d="M 0.00 0.00 L 1500.00 0.00 L 1500.00 1500.00 L 0.00 1500.00 Z" fill="#ffffff" fill-rule="nonzero" node-id="52" stroke="none" target-height="1500" target-width="1500" target-x="0" target-y="0"></path><path d="M 115.00 847.10 C 113.20 850.80 109.90 852.00 106.20 853.10 C 99.10 853.40 91.90 853.90 84.80 853.10 C 72.40 846.60 72.80 836.60 84.80 830.70 C 94.60 830.60 124.30 828.20 115.00 847.10 Z" fill="#ffffff" fill-rule="nonzero" node-id="54" stroke="none" target-height="25.700073" target-width="51.9" target-x="72.4" target-y="828.19995"></path><path d="M 146.80 819.60 C 125.10 820.40 126.50 780.40 140.80 775.60 C 161.40 774.50 160.30 812.10 146.80 819.60 Z" fill="#ffffff" fill-rule="nonzero" node-id="56" stroke="none" target-height="45.900024" target-width="36.299995" target-x="125.1" target-y="774.5"></path><path d="M 153.30 901.60 C 151.30 904.30 149.70 906.30 146.80 908.00 C 126.50 910.20 125.20 872.40 140.80 864.30 C 160.00 864.00 154.40 889.20 153.30 901.60 Z" fill="#ffffff" fill-rule="nonzero" node-id="58" stroke="none" target-height="46.200012" target-width="34.800003" target-x="125.2" target-y="864"></path><path d="M 199.40 853.20 C 189.20 853.40 156.30 855.60 169.30 835.50 C 171.60 831.90 174.80 831.50 178.70 830.80 C 186.50 830.60 198.30 829.00 205.20 832.90 C 216.60 839.30 209.30 851.00 199.40 853.20 Z" fill="#ffffff" fill-rule="nonzero" node-id="60" stroke="none" target-height="26.599976" target-width="60.300003" target-x="156.3" target-y="829"></path><path d="M 651.70 182.70 C 662.10 182.50 689.80 178.00 686.70 195.90 C 686.00 200.30 683.80 202.90 680.20 205.30 C 663.80 206.80 628.30 200.80 651.70 182.70 Z" fill="#ffffff" fill-rule="nonzero" node-id="62" stroke="none" target-height="28.799988" target-width="61.5" target-x="628.3" target-y="178"></path><path d="M 712.00 129.70 C 730.50 129.50 730.80 167.50 719.50 175.20 C 697.70 177.20 695.80 138.40 712.00 129.70 Z" fill="#ffffff" fill-rule="nonzero" node-id="64" stroke="none" target-height="47.700012" target-width="35" target-x="695.8" target-y="129.5"></path><path d="M 748.50 182.70 C 758.20 182.50 788.00 178.80 781.80 197.60 C 780.50 201.60 777.40 203.40 773.90 205.40 C 748.20 208.90 724.80 195.50 748.50 182.70 Z" fill="#ffffff" fill-rule="nonzero" node-id="66" stroke="none" target-height="30.09999" target-width="63.200012" target-x="724.8" target-y="178.8"></path><path d="M 1286.10 853.20 C 1289.50 870.00 1293.20 886.80 1294.90 903.80 C 1317.60 1123.40 1101.70 1261.00 910.90 1298.60 C 679.50 1344.30 292.30 1271.00 238.50 996.80 C 232.20 964.70 234.40 942.80 233.60 911.00 C 225.50 898.10 224.50 878.40 221.40 863.70 C 205.50 789.30 210.20 686.70 228.90 614.90 C 235.00 591.50 244.00 569.90 251.80 547.10 C 216.40 561.50 215.40 558.30 201.20 595.50 C 195.30 611.00 189.10 624.30 170.50 626.30 C 130.60 630.60 138.80 580.60 118.10 562.10 C 98.60 544.70 59.90 545.60 57.50 513.10 C 54.60 474.60 103.50 479.90 121.00 458.00 C 137.30 437.70 133.20 394.20 168.40 394.10 C 206.90 394.00 198.70 441.40 219.80 460.90 C 234.40 474.50 255.40 475.00 271.30 491.20 C 293.30 457.60 313.70 407.20 344.20 382.40 C 346.00 340.90 353.40 238.80 407.60 229.20 C 438.40 223.80 498.20 265.80 523.30 283.00 C 566.60 253.70 651.20 233.10 703.20 229.30 C 705.50 213.50 725.00 213.00 727.00 229.30 C 738.60 229.90 750.20 229.40 761.80 229.40 C 827.10 229.60 894.30 242.40 955.60 264.20 C 967.60 268.40 987.50 274.20 996.20 283.00 C 1021.10 263.20 1079.60 230.60 1111.50 234.00 C 1167.10 239.90 1177.20 355.10 1178.10 395.80 C 1178.40 411.70 1176.40 427.50 1177.70 443.30 C 1188.10 453.10 1196.90 465.40 1205.50 476.70 C 1282.90 578.90 1316.50 727.60 1286.10 853.20 Z" fill="#ffffff" fill-rule="nonzero" node-id="68" stroke="none" target-height="1131.3" target-width="1263" target-x="54.6" target-y="213"></path><path d="M 1452.30 450.80 C 1447.20 478.60 1408.50 478.00 1391.40 494.70 C 1371.80 513.80 1375.70 551.40 1346.20 561.30 C 1311.80 565.50 1306.40 536.50 1296.60 510.90 C 1280.70 469.30 1217.20 485.80 1224.80 436.90 C 1229.40 407.40 1273.00 408.30 1289.50 391.20 C 1308.10 372.00 1298.80 336.50 1332.40 327.40 C 1364.60 324.80 1369.20 352.60 1378.00 376.50 C 1394.50 421.30 1460.70 404.90 1452.30 450.80 Z" fill="#ffffff" fill-rule="nonzero" node-id="70" stroke="none" target-height="240.70001" target-width="243.5" target-x="1217.2" target-y="324.8"></path><path d="M 719.60 175.20 C 697.70 177.20 695.80 138.40 712.10 129.70 C 730.50 129.50 730.90 167.50 719.60 175.20 Z" fill="#333332" fill-rule="nonzero" node-id="72" stroke="none" target-height="47.700012" target-width="35.099976" target-x="695.8" target-y="129.5"></path><path d="M 686.80 196.00 C 686.10 200.40 683.90 203.00 680.30 205.40 C 663.90 206.90 628.30 200.90 651.70 182.80 C 662.10 182.50 689.70 178.00 686.80 196.00 Z" fill="#333332" fill-rule="nonzero" node-id="74" stroke="none" target-height="28.899994" target-width="61.400085" target-x="628.3" target-y="178"></path><path d="M 781.80 197.60 C 780.50 201.60 777.40 203.40 773.90 205.40 C 748.20 208.90 724.90 195.60 748.60 182.80 C 758.20 182.50 788.00 178.80 781.80 197.60 Z" fill="#333332" fill-rule="nonzero" node-id="76" stroke="none" target-height="30.09999" target-width="63.099976" target-x="724.9" target-y="178.8"></path><path d="M 723.80 256.20 C 704.60 275.10 703.10 239.20 703.40 229.40 C 705.70 213.60 725.20 213.10 727.20 229.40 C 726.70 236.70 729.40 250.60 723.80 256.20 Z" fill="#333332" fill-rule="nonzero" node-id="78" stroke="none" target-height="62" target-width="26.30011" target-x="703.0999" target-y="213.1"></path><path d="M 1294.90 903.80 C 1293.20 886.80 1289.40 870.00 1286.10 853.20 C 1280.60 843.60 1278.70 830.50 1275.00 820.00 C 1255.40 764.60 1217.90 737.20 1210.20 680.80 C 1201.30 616.10 1182.40 579.00 1158.70 522.30 C 1164.10 500.30 1171.30 462.80 1178.00 443.30 C 1176.70 427.40 1178.70 411.70 1178.40 395.80 C 1177.40 355.10 1167.30 239.90 1111.80 234.00 C 1079.90 230.60 1021.40 263.20 996.50 283.00 C 970.80 297.40 947.90 320.60 928.00 341.90 C 834.60 307.50 683.60 305.00 590.00 339.00 C 567.90 320.20 546.50 300.90 523.60 282.90 C 498.40 265.70 438.60 223.70 407.90 229.10 C 353.70 238.70 346.30 340.80 344.50 382.30 C 344.60 417.00 345.60 451.10 353.90 485.00 C 357.50 499.70 364.00 513.80 366.90 528.50 C 348.20 565.70 332.50 603.60 323.60 644.40 C 318.50 668.20 316.50 692.70 308.50 715.70 C 297.40 747.50 278.20 775.20 264.50 805.80 C 246.30 846.60 244.00 870.80 233.90 910.80 C 234.60 942.60 232.40 964.50 238.80 996.60 C 292.60 1270.80 679.80 1344.10 911.20 1298.40 C 1101.80 1260.90 1317.70 1123.40 1294.90 903.80 Z M 351.80 723.20 C 387.60 676.00 453.50 653.10 504.50 690.20 C 539.20 715.40 570.20 743.90 617.50 713.70 C 682.90 671.90 663.20 664.00 752.00 652.10 C 817.10 659.10 825.70 661.80 872.90 702.00 C 957.90 774.20 994.00 675.80 1048.70 671.70 C 1081.80 669.20 1120.20 688.50 1144.70 709.60 C 1207.20 763.40 1202.70 862.80 1151.10 922.30 C 1055.00 1033.20 949.20 942.60 839.80 996.40 C 809.90 1011.20 798.00 1023.20 762.10 1025.70 C 719.20 1028.30 706.10 1013.50 671.30 996.50 C 571.00 947.40 480.50 1016.80 384.70 945.80 C 316.40 894.90 299.90 791.50 351.80 723.20 Z M 1250.40 1044.30 C 1246.30 1057.40 1237.40 1070.90 1230.10 1082.50 C 1225.00 1093.50 1214.70 1104.40 1207.00 1113.60 C 1198.40 1123.90 1189.40 1133.70 1179.80 1142.90 C 1096.80 1223.60 978.40 1267.10 863.00 1283.60 C 862.90 1283.60 862.90 1283.60 862.80 1283.70 C 838.90 1287.10 815.20 1289.30 792.00 1290.50 C 780.50 1291.10 763.00 1293.20 752.00 1290.90 C 737.10 1291.10 720.60 1291.10 705.90 1288.40 C 639.60 1287.80 556.20 1265.80 495.50 1239.70 C 325.60 1166.70 202.40 1025.90 275.20 835.90 C 282.10 817.80 291.40 801.10 299.10 783.40 C 298.70 796.40 298.80 809.80 299.10 822.90 C 301.00 832.00 301.10 841.60 302.90 850.80 C 322.80 954.60 416.80 1008.70 518.70 1001.50 C 552.80 999.10 585.50 994.20 619.60 1001.40 C 676.30 1013.40 699.50 1050.60 765.80 1047.30 C 797.70 1045.70 821.90 1028.70 849.60 1015.60 C 908.30 987.80 945.10 1001.50 1006.40 1003.20 C 1109.20 1006.20 1202.10 937.90 1211.50 832.60 C 1213.00 816.20 1211.60 799.90 1212.00 783.50 L 1212.00 783.30 C 1205.30 772.50 1202.90 757.80 1198.00 746.00 C 1192.70 733.50 1185.00 723.90 1177.60 712.70 C 1172.00 709.30 1166.90 702.00 1162.20 697.40 C 1121.80 657.90 1046.60 630.90 997.30 669.00 C 980.10 682.20 969.10 699.50 946.60 704.50 C 904.70 713.80 882.10 676.50 851.30 656.90 C 794.00 620.60 704.80 625.90 648.80 662.00 C 628.30 675.20 611.60 698.10 587.00 703.50 C 554.30 710.60 535.90 684.50 511.50 669.10 C 449.60 630.00 369.20 657.80 332.00 717.20 C 336.60 698.30 338.70 679.00 342.50 659.90 C 360.20 568.80 409.70 475.60 490.30 425.70 C 506.00 416.00 535.10 410.60 525.90 390.80 C 511.00 358.70 469.50 322.30 436.10 310.00 C 365.60 284.10 374.10 451.70 392.50 491.10 C 388.90 494.80 385.80 498.80 382.60 502.80 C 354.60 447.60 362.50 313.80 392.50 264.00 C 396.70 257.60 402.00 251.80 409.90 250.30 C 440.10 244.80 525.00 309.30 552.50 334.80 C 583.00 363.00 569.70 366.40 612.10 355.00 C 718.50 326.60 830.10 330.50 934.00 367.00 C 949.40 338.70 1039.70 275.80 1068.60 266.60 C 1105.50 251.10 1120.60 246.50 1137.40 288.30 C 1174.50 380.40 1154.30 441.90 1135.10 528.40 C 1162.40 571.40 1177.90 620.20 1186.60 670.00 C 1198.80 739.50 1191.30 709.50 1226.40 770.30 C 1270.50 846.40 1296.60 963.50 1250.40 1044.30 Z M 418.50 327.50 C 455.20 338.30 482.60 363.30 503.90 394.30 C 482.50 404.60 463.90 416.70 446.10 432.20 C 432.60 444.60 420.70 459.10 406.80 470.90 C 397.50 423.30 394.90 371.60 418.50 327.50 Z" fill="#333332" fill-rule="nonzero" node-id="80" stroke="none" target-height="1120.4" target-width="1115.2999" target-x="202.4" target-y="223.69998"></path><path d="M 996.40 283.00 C 970.80 297.40 947.90 320.60 928.00 341.90 C 834.60 307.50 683.60 305.00 590.00 339.00 C 567.90 320.20 546.50 300.90 523.60 282.90 C 566.90 253.60 651.50 233.00 703.50 229.20 C 703.20 239.00 704.70 274.90 723.90 256.00 C 729.60 250.40 726.90 236.50 727.30 229.20 C 738.90 229.80 750.50 229.30 762.10 229.30 C 827.40 229.50 894.60 242.30 955.90 264.10 C 967.70 268.40 987.70 274.20 996.40 283.00 Z" fill="#e3da57" fill-rule="nonzero" node-id="82" stroke="none" target-height="112.7" target-width="472.80005" target-x="523.6" target-y="229.2"></path><path d="M 1022.80 428.00 C 1017.10 424.30 1008.70 422.20 1004.10 417.30 C 999.10 411.80 978.90 405.40 978.80 398.40 C 978.70 383.80 1026.60 340.20 1038.90 330.20 C 1144.00 245.20 1136.90 412.80 1127.00 477.10 C 1125.20 488.80 1122.40 496.10 1111.00 500.50 C 1117.50 507.20 1122.80 514.90 1128.30 522.40 C 1128.70 508.90 1133.90 494.60 1136.50 481.30 C 1147.10 427.00 1152.00 310.20 1112.40 271.80 C 1099.50 259.30 1084.30 267.30 1068.90 266.90 C 1040.00 276.20 949.70 339.10 934.30 367.30 C 922.10 376.20 903.60 368.40 890.60 365.30 C 811.10 346.50 644.00 341.20 577.70 377.30 C 532.50 344.90 451.30 248.80 392.80 264.30 C 362.90 314.00 355.00 447.80 383.00 503.00 C 386.20 499.00 389.30 495.00 392.90 491.30 C 374.50 452.00 366.00 284.30 436.40 310.20 C 469.80 322.40 511.30 358.80 526.20 391.00 C 535.40 410.70 506.30 416.20 490.60 425.90 C 409.80 475.60 360.30 568.90 342.60 660.00 C 338.90 679.10 336.70 698.40 332.10 717.30 C 369.30 657.90 449.70 630.10 511.60 669.20 C 536.00 684.60 554.50 710.80 587.10 703.60 C 611.70 698.20 628.40 675.30 648.90 662.10 C 705.00 626.00 794.20 620.70 851.40 657.00 C 882.30 676.60 904.80 713.90 946.70 704.60 C 969.30 699.60 980.30 682.40 997.40 669.10 C 1046.70 631.00 1121.90 658.00 1162.30 697.50 C 1167.00 702.10 1172.10 709.40 1177.70 712.80 C 1181.60 609.50 1107.80 483.70 1022.80 428.00 Z M 590.00 660.20 C 520.10 665.50 509.30 560.10 577.70 547.00 C 647.50 547.90 654.80 650.00 590.00 660.20 Z M 654.80 519.10 C 620.90 523.10 572.70 469.00 617.50 454.00 C 656.80 449.90 696.00 505.50 654.80 519.10 Z M 886.00 454.00 C 930.70 443.80 918.40 506.10 870.10 519.10 C 822.10 523.10 840.00 459.30 886.00 454.00 Z M 934.30 660.20 C 862.50 661.50 851.40 562.40 918.00 547.00 C 973.90 540.10 1010.60 625.50 934.30 660.20 Z" fill="#fd7069" fill-rule="nonzero" node-id="84" stroke="none" target-height="472.09998" target-width="849.5" target-x="332.1" target-y="245.2"></path><path d="M 1038.90 330.10 C 1026.60 340.10 978.60 383.80 978.80 398.30 C 978.90 405.30 999.10 411.80 1004.10 417.20 C 1049.20 431.20 1077.30 474.30 1111.10 500.40 C 1122.40 495.90 1125.30 488.70 1127.10 477.00 C 1136.90 412.70 1144.10 245.10 1038.90 330.10 Z M 1107.10 467.20 C 1097.40 454.50 1082.30 440.80 1068.90 432.30 C 1052.60 417.70 1027.60 401.70 1006.90 394.40 C 1020.50 369.40 1060.10 335.80 1087.00 327.60 C 1121.70 334.90 1110.50 441.60 1107.10 467.20 Z" fill="url(#SVGID_1_)" fill-rule="nonzero" node-id="86" stroke="none" target-height="255.29999" target-width="165.50006" target-x="978.5999" target-y="245.1"></path><path d="M 1377.90 376.60 C 1369.10 352.70 1364.50 324.90 1332.30 327.50 C 1298.80 336.60 1308.00 372.00 1289.40 391.30 C 1272.90 408.40 1229.30 407.50 1224.70 437.00 C 1217.10 485.80 1280.50 469.40 1296.50 511.00 C 1306.30 536.70 1311.70 565.70 1346.10 561.40 C 1375.60 551.50 1371.70 513.80 1391.30 494.80 C 1408.50 478.10 1447.10 478.70 1452.20 450.90 C 1460.70 404.90 1394.50 421.30 1377.90 376.60 Z M 1415.30 457.40 C 1399.50 464.70 1378.40 472.10 1368.90 487.40 C 1362.80 497.20 1346.50 559.40 1329.80 535.70 C 1300.60 471.60 1320.40 485.70 1256.20 454.60 C 1220.20 437.10 1285.70 420.50 1297.80 412.50 C 1319.80 398.00 1318.40 371.90 1332.30 352.30 C 1348.40 331.20 1356.70 400.40 1376.10 414.40 C 1397.50 429.80 1462.40 435.60 1415.30 457.40 Z" fill="#333332" fill-rule="nonzero" node-id="88" stroke="none" target-height="240.80002" target-width="245.29993" target-x="1217.1" target-y="324.9"></path><path d="M 1329.70 535.70 C 1300.50 471.60 1320.30 485.70 1256.10 454.60 C 1220.10 437.10 1285.60 420.50 1297.70 412.50 C 1319.70 398.00 1318.30 371.90 1332.30 352.30 C 1340.10 377.90 1348.60 413.20 1373.80 426.10 C 1380.20 429.40 1403.80 436.40 1406.70 440.60 C 1391.50 452.30 1371.10 454.50 1358.80 470.40 C 1350.50 481.20 1334.20 521.90 1329.70 535.70 Z" fill="#e3da57" fill-rule="nonzero" node-id="90" stroke="none" target-height="183.40002" target-width="186.59998" target-x="1220.1" target-y="352.3"></path><path d="M 366.80 528.60 C 348.10 565.80 332.40 603.70 323.50 644.50 C 318.40 668.30 316.40 692.80 308.40 715.80 C 297.30 747.60 278.10 775.30 264.40 805.90 C 246.20 846.70 243.90 870.90 233.80 910.90 C 225.70 898.00 224.70 878.30 221.60 863.60 C 205.70 789.20 210.40 686.60 229.10 614.80 C 235.20 591.40 244.20 569.80 252.00 547.00 C 270.10 535.00 295.90 514.50 271.40 491.20 C 293.40 457.60 313.80 407.20 344.30 382.40 C 344.40 417.10 345.40 451.20 353.70 485.10 C 357.50 499.70 363.90 513.80 366.80 528.60 Z" fill="#e3da57" fill-rule="nonzero" node-id="92" stroke="none" target-height="528.5" target-width="161.09999" target-x="205.7" target-y="382.4"></path><path d="M 271.50 491.20 C 255.60 475.00 234.60 474.50 220.00 460.90 C 199.00 441.50 207.10 394.10 168.60 394.10 C 133.40 394.20 137.50 437.60 121.20 458.00 C 103.70 479.90 54.80 474.70 57.70 513.10 C 60.10 545.60 98.80 544.70 118.30 562.10 C 139.00 580.60 130.90 630.60 170.70 626.30 C 189.30 624.30 195.50 611.00 201.40 595.50 C 215.50 558.30 216.50 561.50 252.00 547.10 C 270.10 535.10 295.90 514.50 271.50 491.20 Z M 255.30 517.50 C 238.10 538.20 204.00 529.40 188.00 569.10 C 184.80 577.10 174.50 619.20 160.60 599.70 C 139.40 557.70 150.90 552.80 106.30 530.60 C 42.30 498.90 108.40 501.80 136.60 472.90 C 151.90 457.30 155.20 413.10 171.70 417.20 C 193.60 433.20 181.90 468.00 223.10 488.50 C 231.50 492.80 267.80 502.40 255.30 517.50 Z" fill="#333332" fill-rule="nonzero" node-id="94" stroke="none" target-height="236.49997" target-width="253.59999" target-x="42.3" target-y="394.1"></path><path d="M 171.70 417.30 L 164.50 423.80 C 172.50 483.60 193.00 487.70 241.90 509.60 C 198.00 534.90 180.60 527.00 165.40 583.50 C 163.90 588.90 162.80 594.60 160.50 599.70 C 139.30 557.70 150.80 552.80 106.20 530.60 C 42.20 498.90 108.30 501.80 136.50 472.90 C 151.90 457.40 155.20 413.20 171.70 417.30 Z" fill="#e3da57" fill-rule="nonzero" node-id="96" stroke="none" target-height="186.5" target-width="199.7" target-x="42.2" target-y="413.2"></path><path d="M 1286.10 853.20 C 1280.60 843.60 1278.70 830.50 1275.00 820.00 C 1255.40 764.60 1217.90 737.20 1210.20 680.80 C 1201.30 616.10 1182.40 579.00 1158.70 522.30 C 1164.10 500.30 1171.30 462.80 1178.00 443.30 C 1188.40 453.10 1197.20 465.40 1205.80 476.70 C 1282.90 578.90 1316.50 727.60 1286.10 853.20 Z" fill="#e3da57" fill-rule="nonzero" node-id="98" stroke="none" target-height="409.9" target-width="157.80005" target-x="1158.7" target-y="443.30002"></path><path d="M 917.90 547.00 C 851.30 562.50 862.50 661.50 934.20 660.20 C 1010.60 625.50 973.90 540.10 917.90 547.00 Z M 948.70 610.30 C 937.20 611.80 926.70 603.60 925.20 592.10 C 923.80 580.60 932.00 570.10 943.50 568.80 C 954.90 567.50 965.20 575.60 966.60 587.00 C 968.20 598.40 960.10 608.80 948.70 610.30 Z" fill="#333332" fill-rule="nonzero" node-id="100" stroke="none" target-height="121.400024" target-width="159.29987" target-x="851.30005" target-y="540.1"></path><path d="M 577.60 547.00 C 509.20 560.20 520.00 665.60 589.90 660.20 C 654.80 650.00 647.50 547.90 577.60 547.00 Z M 608.70 611.60 C 597.40 613.70 586.60 606.30 584.30 595.10 C 582.10 583.90 589.40 572.90 600.60 570.60 C 611.90 568.30 623.10 575.60 625.30 587.00 C 627.60 598.40 620.10 609.50 608.70 611.60 Z" fill="#333332" fill-rule="nonzero" node-id="102" stroke="none" target-height="118.599976" target-width="145.59998" target-x="509.2" target-y="547"></path><path d="M 878.20 754.40 C 872.90 759.50 872.00 769.20 869.50 775.90 C 851.50 825.10 771.70 801.20 765.40 745.20 C 783.70 733.10 812.50 715.40 817.30 692.00 C 823.20 662.80 764.80 657.60 744.00 660.30 C 656.00 667.00 694.40 713.90 744.00 745.30 C 735.00 796.60 671.70 825.40 643.20 783.40 C 635.80 772.50 636.10 752.70 624.90 751.00 C 606.90 748.30 611.30 807.30 666.90 822.90 C 666.80 866.50 660.70 908.60 694.60 942.50 C 714.10 961.90 738.50 969.60 765.40 967.00 C 844.40 952.60 842.00 885.80 841.90 823.00 C 900.20 804.60 902.70 746.30 878.20 754.40 Z M 818.90 889.10 C 807.80 952.10 733.80 966.00 699.00 915.00 C 683.60 889.20 687.20 852.20 687.10 822.90 C 711.20 821.20 726.60 812.10 743.90 795.60 C 743.70 806.60 742.10 860.00 745.90 866.70 C 749.90 873.60 761.40 872.10 764.20 864.90 C 770.40 849.00 762.60 814.90 765.30 795.60 C 783.00 810.90 797.20 820.50 820.90 822.90 C 820.90 844.50 822.70 867.80 818.90 889.10 Z" fill="#333332" fill-rule="nonzero" node-id="104" stroke="none" target-height="312" target-width="295.8" target-x="606.9" target-y="657.6"></path><path d="M 1060.00 830.80 C 991.90 850.60 918.80 742.20 1035.40 717.30 C 1069.00 712.70 1119.90 731.30 1122.40 771.00 C 1124.50 804.40 1090.60 829.30 1060.00 830.80 Z" fill="#fd7069" fill-rule="nonzero" node-id="106" stroke="none" target-height="137.8999" target-width="205.70001" target-x="918.8" target-y="712.7"></path><path d="M 479.80 830.80 C 391.80 854.10 343.90 738.60 449.70 718.80 C 563.40 710.80 563.00 825.10 479.80 830.80 Z" fill="#fd7069" fill-rule="nonzero" node-id="108" stroke="none" target-height="143.29999" target-width="219.50003" target-x="343.9" target-y="710.8"></path><path d="M 146.80 819.60 C 125.10 820.40 126.50 780.40 140.80 775.60 C 161.40 774.50 160.30 812.10 146.80 819.60 Z" fill="#333332" fill-rule="nonzero" node-id="110" stroke="none" target-height="45.900024" target-width="36.299995" target-x="125.1" target-y="774.5"></path><path d="M 1212.30 783.40 C 1212.00 793.00 1232.60 816.80 1237.30 826.50 C 1244.90 842.30 1251.20 858.60 1255.60 875.60 C 1263.10 905.10 1263.60 934.30 1261.50 964.40 C 1255.90 1046.30 1214.20 1118.00 1151.10 1169.40 C 1043.40 1257.00 892.50 1292.60 756.00 1289.00 C 645.90 1286.00 530.60 1257.50 436.00 1200.30 C 299.00 1117.50 226.30 976.10 299.20 822.90 C 301.10 832.00 301.20 841.60 303.00 850.80 C 322.90 954.50 416.90 1008.70 518.80 1001.50 C 552.90 999.10 585.70 994.20 619.70 1001.40 C 676.40 1013.40 699.60 1050.60 765.90 1047.30 C 797.80 1045.70 822.00 1028.70 849.70 1015.60 C 908.40 987.80 945.20 1001.50 1006.60 1003.20 C 1109.40 1006.20 1202.30 937.90 1211.70 832.60 C 1213.20 816.20 1211.80 799.90 1212.30 783.40 Z" fill="#57c2aa" fill-rule="nonzero" node-id="112" stroke="none" target-height="509.1999" target-width="1037.2999" target-x="226.3" target-y="783.4001"></path><path d="M 743.90 795.60 C 743.70 806.60 742.10 860.00 746.00 866.70 C 750.00 873.60 761.50 872.10 764.30 864.90 C 770.50 849.00 762.70 814.90 765.40 795.60 C 783.10 810.90 797.30 820.50 821.00 822.90 C 821.00 844.50 822.80 867.80 819.00 889.10 C 807.80 952.00 733.80 966.00 699.00 914.90 C 683.60 889.10 687.20 852.10 687.10 822.80 C 711.20 821.20 726.60 812.00 743.90 795.60 Z" fill="#fd7069" fill-rule="nonzero" node-id="114" stroke="none" target-height="170.40002" target-width="139.20001" target-x="683.6" target-y="795.6"></path><path d="M 115.00 847.10 C 113.20 850.80 109.90 852.00 106.20 853.10 C 99.10 853.40 91.90 853.90 84.80 853.10 C 72.40 846.60 72.80 836.60 84.80 830.70 C 94.60 830.60 124.30 828.20 115.00 847.10 Z" fill="#333332" fill-rule="nonzero" node-id="116" stroke="none" target-height="25.700073" target-width="51.9" target-x="72.4" target-y="828.19995"></path><path d="M 199.40 853.20 C 189.20 853.40 156.30 855.60 169.30 835.50 C 171.60 831.90 174.80 831.50 178.70 830.80 C 186.50 830.60 198.30 829.00 205.20 832.90 C 216.60 839.30 209.30 851.00 199.40 853.20 Z" fill="#333332" fill-rule="nonzero" node-id="118" stroke="none" target-height="26.599976" target-width="60.300003" target-x="156.3" target-y="829"></path><path d="M 153.30 901.60 C 151.30 904.30 149.70 906.30 146.80 908.00 C 126.50 910.20 125.20 872.40 140.80 864.30 C 160.00 864.00 154.40 889.20 153.30 901.60 Z" fill="#333332" fill-rule="nonzero" node-id="120" stroke="none" target-height="46.200012" target-width="34.800003" target-x="125.2" target-y="864"></path></svg>